<svg version="1.1" xmlns="http://www.w3.org/2000/svg" xmlns:xlink="http://www.w3.org/1999/xlink" width="74px" height="59px" viewBox="0 0 512 512" style="enable-background:new 0 0 512 512;" xml:space="preserve">
    <g id="Layer_1">
        <g>
            <path d="M232.27,337.35c-3.03-0.24-6.23-0.36-9.59-0.36c-3.37,0-6.9,0-10.6,0c-16.15,0-34.33,0.36-54.52,1.07l-23.22,50.82
			c3.03-9.3,8.58-26.12,16.66-50.46c-5.39,0.24-10.77,0.48-16.15,0.72c-5.39,0.24-10.94,0.6-16.66,1.07
			c-3.71,9.3-7.24,18.07-10.6,26.3c-3.37,8.23-6.56,15.81-9.59,22.72c2.02-6.92,4.2-14.49,6.56-22.72
			c2.35-8.23,4.87-16.88,7.57-25.94c-41.73,2.63-77.41,5.85-107.02,9.66c15.81-4.05,32.89-8.11,51.24-12.17
			c18.34-4.05,38.11-8.11,59.32-12.17c3.36-11.93,6.48-23.62,9.34-35.07c2.86-11.45,5.63-22.9,8.33-34.35
			c-16.15-6.92-31.3-13.06-45.43-18.43c-14.14-5.37-27.43-10.08-39.88-14.13l34.33-25.77c10.43-1.67,21.03-3.28,31.8-4.83
			c10.77-1.55,21.87-2.92,33.32-4.12c1.34-6.92,2.35-13.42,3.03-19.5c0.67-6.08,1.34-11.51,2.02-16.28l30.79-6.44
			c-1.01,5.49-2.36,11.51-4.04,18.07c-1.69,6.56-3.71,13.66-6.06,21.29c8.41-0.95,16.82-1.67,25.24-2.15
			c2.35-9.06,4.12-17.29,5.3-24.69c1.18-7.39,2.1-13.83,2.78-19.32l31.3-6.44c-1.35,6.21-3.2,13.36-5.55,21.47
			c-2.36,8.11-5.39,17.18-9.09,27.2c13.46-0.72,25.57-1.07,36.35-1.07h0.5l8.58,27.91c-7.41-0.95-15.57-1.73-24.48-2.33
			c-8.92-0.59-18.77-1.01-29.53-1.25c-5.73,14.31-12.29,30.42-19.69,48.31c28.6,15.75,51.82,30.78,69.67,45.09L232.27,337.35z
			 M142.16,215.86c0.84-3.46,1.59-6.86,2.27-10.2c-9.77,0.48-18.68,0.96-26.76,1.43c-8.08,0.48-15.32,1.2-21.71,2.15
			c6.73,2.39,13.8,5.07,21.2,8.05c7.4,2.99,14.97,6.14,22.72,9.48C140.56,222.96,141.31,219.32,142.16,215.86z M160.08,268.46
			c-4.04-1.79-8.08-3.63-12.12-5.55c-3.71,10.26-7.49,20.46-11.36,30.6c-3.87,10.14-7.82,20.34-11.86,30.6
			c5.72-1.19,11.27-2.2,16.66-3.04c5.38-0.83,10.77-1.73,16.15-2.68l14.64-44.37C168.15,272.1,164.12,270.25,160.08,268.46z
			 M192.89,205.3c-1.69-0.23-3.53-0.36-5.55-0.36c-1.69,0-3.37,0-5.05,0c-2.7,0-5.22,0-7.57,0c-2.36,0-4.72,0.12-7.07,0.36
			c-1.69,4.78-3.37,9.61-5.05,14.49c-1.69,4.89-3.37,9.96-5.05,15.21c3.7,1.91,7.57,3.82,11.61,5.73c4.04,1.91,7.9,3.82,11.61,5.73
			L192.89,205.3z M183.3,279.73c-2.36,5.49-4.88,11.33-7.57,17.54c-2.7,6.21-5.55,12.65-8.58,19.32c13.8-2.38,26.42-4.35,37.86-5.9
			c11.44-1.55,21.87-2.92,31.3-4.12C220.15,297.75,202.48,288.8,183.3,279.73z"></path>
        </g>
    </g>
    <g id="Layer_2">
        <g>
            <path d="M279.57,328.65c2.85-37.17,15.69-68.3,38.53-93.39c27.11-29.68,68.92-52.24,125.43-67.69l48.8,12.85
			c0.28,1.99,0.43,3.98,0.43,5.97c0,1.84,0,3.75,0,5.74c0,17.9-2.86,34.34-8.56,49.33c-5.71,14.99-14.98,28.84-27.83,41.53
			c-12.84,12.7-29.69,24.32-50.52,34.88c-20.84,10.56-46.38,20.42-76.63,29.6L279.57,328.65z M436.26,175.37
			c-39.1,13-68.64,29.37-88.62,49.1c-19.98,19.73-29.97,41.84-29.97,66.31c0,16.37,4.56,32.35,13.7,47.96
			c41.38-10.55,73.49-25.62,96.32-45.2c23.12-19.42,34.68-41.45,34.68-66.08C462.37,204.36,453.66,187,436.26,175.37z"></path>
        </g>
    </g>
    <g id="Layer_3">
        <g>
            <path d="M325.9,165.44l45.81-5.84c8.78,32.24,19.67,67.03,32.65,104.36c12.99,37.34,28.26,77.59,45.81,120.76l2.11,5.56
			C396.12,302.46,353.99,227.51,325.9,165.44z"></path>
        </g>
    </g>
    <g id="Layer_4">
        <g>
            <path d="M459.54,168.68l-2.67-1.8c0.56-2.02,1.4-4.38,2.52-7.08c0.56-1.34,1.08-2.51,1.56-3.51c0.48-1,0.93-1.84,1.35-2.52
			l2.52,0.72l-0.33,3.15l-2.67-0.96c-0.42,0.72-1,2.16-1.74,4.32c-0.34,1.02-0.64,1.98-0.9,2.86c-0.26,0.89-0.48,1.74-0.66,2.54
			c2.34-0.48,4.33-1.29,5.97-2.43C462.83,165.87,461.18,167.44,459.54,168.68z"></path>
            <path d="M465.03,167.84l-1.29-2.4c0.3-0.62,0.64-1.44,1.02-2.45c0.38-1.01,0.75-2.07,1.11-3.18c0.36-1.11,0.69-2.19,0.99-3.24
			c0.3-1.05,0.52-1.92,0.66-2.63l2.04,0.93c-0.5,1.78-1.08,3.56-1.74,5.32c-0.66,1.77-1.42,3.56-2.28,5.36
			c1.08-0.44,2.38-1.4,3.9-2.88C468.4,164.5,466.93,166.22,465.03,167.84z M468.93,152.63l0.18-4.14l2.43,0.21L468.93,152.63z"></path>
            <path d="M472.02,168.14l-0.6-1.17c-0.26,0.22-0.72,0.53-1.38,0.93c-0.38,0.22-0.68,0.39-0.91,0.52c-0.23,0.13-0.39,0.23-0.47,0.29
			l-1.17-1.83c0.46-2.24,1.21-4.54,2.25-6.9c1.14-2.64,2.38-4.71,3.72-6.21c0.78,0.04,1.63,0.28,2.55,0.72
			c0,0.46-0.03,0.96-0.08,1.48c-0.05,0.53-0.13,1.09-0.25,1.67c-0.28-0.16-0.58-0.32-0.9-0.48c-0.32-0.16-0.65-0.32-0.99-0.48
			c-1.02,0.7-2.15,2.17-3.39,4.41c-0.62,1.1-1.09,2.09-1.42,2.97s-0.54,1.66-0.62,2.34c2.4-1.3,4.28-3.93,5.64-7.89l1.62,0.84
			c-0.92,2.76-1.74,4.77-2.46,6.03c1.32-0.38,2.55-1.01,3.69-1.89C475.29,165.57,473.68,167.12,472.02,168.14z"></path>
            <path d="M480.9,151.47c-0.66,1.99-1.37,4.33-2.13,7.01c-0.64,2.24-1.24,4.38-1.79,6.4c-0.55,2.03-1.05,3.98-1.51,5.83
			c0.62-5.44,1.31-10.22,2.08-14.34c0.77-4.12,1.62-7.64,2.54-10.56l2.58,0.63C482.15,147.81,481.56,149.48,480.9,151.47z"></path>
        </g>
    </g>
</svg>